{
	"patcher" : 	{
		"fileversion" : 1,
		"appversion" : 		{
			"major" : 8,
			"minor" : 1,
			"revision" : 1,
			"architecture" : "x64",
			"modernui" : 1
		}
,
		"classnamespace" : "box",
		"rect" : [ 59.0, 107.0, 763.0, 467.0 ],
		"bglocked" : 0,
		"openinpresentation" : 0,
		"default_fontsize" : 12.0,
		"default_fontface" : 0,
		"default_fontname" : "Arial",
		"gridonopen" : 1,
		"gridsize" : [ 15.0, 15.0 ],
		"gridsnaponopen" : 1,
		"objectsnaponopen" : 1,
		"statusbarvisible" : 2,
		"toolbarvisible" : 1,
		"lefttoolbarpinned" : 0,
		"toptoolbarpinned" : 0,
		"righttoolbarpinned" : 0,
		"bottomtoolbarpinned" : 0,
		"toolbars_unpinned_last_save" : 0,
		"tallnewobj" : 0,
		"boxanimatetime" : 200,
		"enablehscroll" : 1,
		"enablevscroll" : 1,
		"devicewidth" : 0.0,
		"description" : "",
		"digest" : "",
		"tags" : "",
		"style" : "",
		"subpatcher_template" : "",
		"boxes" : [ 			{
				"box" : 				{
					"fontname" : "Verdana",
					"fontsize" : 10.0,
					"id" : "obj-54",
					"maxclass" : "newobj",
					"numinlets" : 1,
					"numoutlets" : 1,
					"outlettype" : [ "" ],
					"patcher" : 					{
						"fileversion" : 1,
						"appversion" : 						{
							"major" : 8,
							"minor" : 1,
							"revision" : 1,
							"architecture" : "x64",
							"modernui" : 1
						}
,
						"classnamespace" : "box",
						"rect" : [ 719.0, 100.0, 624.0, 395.0 ],
						"bglocked" : 0,
						"openinpresentation" : 0,
						"default_fontsize" : 10.0,
						"default_fontface" : 0,
						"default_fontname" : "Verdana",
						"gridonopen" : 1,
						"gridsize" : [ 15.0, 15.0 ],
						"gridsnaponopen" : 1,
						"objectsnaponopen" : 1,
						"statusbarvisible" : 2,
						"toolbarvisible" : 1,
						"lefttoolbarpinned" : 0,
						"toptoolbarpinned" : 0,
						"righttoolbarpinned" : 0,
						"bottomtoolbarpinned" : 0,
						"toolbars_unpinned_last_save" : 0,
						"tallnewobj" : 0,
						"boxanimatetime" : 200,
						"enablehscroll" : 1,
						"enablevscroll" : 1,
						"devicewidth" : 0.0,
						"description" : "",
						"digest" : "",
						"tags" : "",
						"style" : "",
						"subpatcher_template" : "",
						"boxes" : [ 							{
								"box" : 								{
									"fontname" : "Verdana",
									"fontsize" : 10.0,
									"id" : "obj-10",
									"maxclass" : "newobj",
									"numinlets" : 2,
									"numoutlets" : 1,
									"outlettype" : [ "" ],
									"patching_rect" : [ 515.200012000000015, 188.0, 73.0, 21.0 ],
									"text" : "mgt.liststats"
								}

							}
, 							{
								"box" : 								{
									"fontname" : "Verdana",
									"fontsize" : 10.0,
									"id" : "obj-11",
									"maxclass" : "newobj",
									"numinlets" : 1,
									"numoutlets" : 1,
									"outlettype" : [ "" ],
									"patching_rect" : [ 515.200012000000015, 214.0, 77.0, 21.0 ],
									"text" : "prepend qom"
								}

							}
, 							{
								"box" : 								{
									"id" : "obj-13",
									"maxclass" : "button",
									"numinlets" : 1,
									"numoutlets" : 1,
									"outlettype" : [ "bang" ],
									"parameter_enable" : 0,
									"patching_rect" : [ 515.200012000000015, 161.0, 20.0, 20.0 ]
								}

							}
, 							{
								"box" : 								{
									"fontname" : "Verdana",
									"fontsize" : 10.0,
									"id" : "obj-2",
									"maxclass" : "newobj",
									"numinlets" : 2,
									"numoutlets" : 1,
									"outlettype" : [ "" ],
									"patching_rect" : [ 430.200012000000015, 188.0, 73.0, 21.0 ],
									"text" : "mgt.liststats"
								}

							}
, 							{
								"box" : 								{
									"fontname" : "Verdana",
									"fontsize" : 10.0,
									"id" : "obj-7",
									"maxclass" : "newobj",
									"numinlets" : 1,
									"numoutlets" : 1,
									"outlettype" : [ "" ],
									"patching_rect" : [ 430.200012000000015, 214.0, 77.0, 21.0 ],
									"text" : "prepend aom"
								}

							}
, 							{
								"box" : 								{
									"id" : "obj-8",
									"maxclass" : "button",
									"numinlets" : 1,
									"numoutlets" : 1,
									"outlettype" : [ "bang" ],
									"parameter_enable" : 0,
									"patching_rect" : [ 430.200012000000015, 161.0, 20.0, 20.0 ]
								}

							}
, 							{
								"box" : 								{
									"fontname" : "Verdana",
									"fontsize" : 10.0,
									"id" : "obj-42",
									"maxclass" : "newobj",
									"numinlets" : 2,
									"numoutlets" : 1,
									"outlettype" : [ "" ],
									"patching_rect" : [ 155.200011999999987, 188.0, 73.0, 21.0 ],
									"text" : "mgt.liststats"
								}

							}
, 							{
								"box" : 								{
									"fontname" : "Verdana",
									"fontsize" : 10.0,
									"id" : "obj-44",
									"maxclass" : "newobj",
									"numinlets" : 1,
									"numoutlets" : 1,
									"outlettype" : [ "" ],
									"patching_rect" : [ 155.200011999999987, 214.0, 88.0, 21.0 ],
									"text" : "prepend com_x"
								}

							}
, 							{
								"box" : 								{
									"id" : "obj-46",
									"maxclass" : "button",
									"numinlets" : 1,
									"numoutlets" : 1,
									"outlettype" : [ "bang" ],
									"parameter_enable" : 0,
									"patching_rect" : [ 155.200011999999987, 161.0, 20.0, 20.0 ]
								}

							}
, 							{
								"box" : 								{
									"fontname" : "Verdana",
									"fontsize" : 10.0,
									"id" : "obj-37",
									"maxclass" : "newobj",
									"numinlets" : 2,
									"numoutlets" : 1,
									"outlettype" : [ "" ],
									"patching_rect" : [ 341.200012000000015, 188.0, 73.0, 21.0 ],
									"text" : "mgt.liststats"
								}

							}
, 							{
								"box" : 								{
									"fontname" : "Verdana",
									"fontsize" : 10.0,
									"id" : "obj-38",
									"maxclass" : "newobj",
									"numinlets" : 1,
									"numoutlets" : 1,
									"outlettype" : [ "" ],
									"patching_rect" : [ 341.200012000000015, 214.0, 77.0, 21.0 ],
									"text" : "prepend hom"
								}

							}
, 							{
								"box" : 								{
									"id" : "obj-39",
									"maxclass" : "button",
									"numinlets" : 1,
									"numoutlets" : 1,
									"outlettype" : [ "bang" ],
									"parameter_enable" : 0,
									"patching_rect" : [ 341.200012000000015, 161.0, 20.0, 20.0 ]
								}

							}
, 							{
								"box" : 								{
									"fontname" : "Verdana",
									"fontsize" : 10.0,
									"id" : "obj-29",
									"maxclass" : "newobj",
									"numinlets" : 2,
									"numoutlets" : 1,
									"outlettype" : [ "" ],
									"patching_rect" : [ 252.200011999999987, 188.0, 73.0, 21.0 ],
									"text" : "mgt.liststats"
								}

							}
, 							{
								"box" : 								{
									"fontname" : "Verdana",
									"fontsize" : 10.0,
									"id" : "obj-31",
									"maxclass" : "newobj",
									"numinlets" : 1,
									"numoutlets" : 1,
									"outlettype" : [ "" ],
									"patching_rect" : [ 252.200011999999987, 214.0, 79.0, 21.0 ],
									"text" : "prepend wom"
								}

							}
, 							{
								"box" : 								{
									"id" : "obj-36",
									"maxclass" : "button",
									"numinlets" : 1,
									"numoutlets" : 1,
									"outlettype" : [ "bang" ],
									"parameter_enable" : 0,
									"patching_rect" : [ 252.200011999999987, 161.0, 20.0, 20.0 ]
								}

							}
, 							{
								"box" : 								{
									"fontname" : "Verdana",
									"fontsize" : 10.0,
									"id" : "obj-27",
									"maxclass" : "newobj",
									"numinlets" : 2,
									"numoutlets" : 1,
									"outlettype" : [ "" ],
									"patching_rect" : [ 61.200012000000001, 188.0, 73.0, 21.0 ],
									"text" : "mgt.liststats"
								}

							}
, 							{
								"box" : 								{
									"fontname" : "Verdana",
									"fontsize" : 11.595186999999999,
									"id" : "obj-19",
									"maxclass" : "newobj",
									"numinlets" : 1,
									"numoutlets" : 1,
									"outlettype" : [ "" ],
									"patching_rect" : [ 252.200011999999987, 283.0, 141.0, 23.0 ],
									"text" : "tosymbol @separator \\,"
								}

							}
, 							{
								"box" : 								{
									"fontname" : "Verdana",
									"fontsize" : 11.595186999999999,
									"id" : "obj-20",
									"maxclass" : "newobj",
									"numinlets" : 1,
									"numoutlets" : 1,
									"outlettype" : [ "" ],
									"patching_rect" : [ 252.200011999999987, 310.0, 69.0, 23.0 ],
									"text" : "append cr"
								}

							}
, 							{
								"box" : 								{
									"fontname" : "Verdana",
									"fontsize" : 10.0,
									"id" : "obj-16",
									"maxclass" : "newobj",
									"numinlets" : 1,
									"numoutlets" : 1,
									"outlettype" : [ "" ],
									"patching_rect" : [ 61.200012000000001, 214.0, 88.0, 21.0 ],
									"text" : "prepend com_y"
								}

							}
, 							{
								"box" : 								{
									"id" : "obj-12",
									"maxclass" : "button",
									"numinlets" : 1,
									"numoutlets" : 1,
									"outlettype" : [ "bang" ],
									"parameter_enable" : 0,
									"patching_rect" : [ 61.200012000000001, 161.0, 20.0, 20.0 ]
								}

							}
, 							{
								"box" : 								{
									"comment" : "",
									"id" : "obj-52",
									"index" : 1,
									"maxclass" : "inlet",
									"numinlets" : 0,
									"numoutlets" : 1,
									"outlettype" : [ "bang" ],
									"patching_rect" : [ 32.200012000000001, 64.0, 25.0, 25.0 ]
								}

							}
, 							{
								"box" : 								{
									"comment" : "",
									"id" : "obj-53",
									"index" : 1,
									"maxclass" : "outlet",
									"numinlets" : 1,
									"numoutlets" : 0,
									"patching_rect" : [ 252.200011999999987, 342.0, 25.0, 25.0 ]
								}

							}
, 							{
								"box" : 								{
									"fontname" : "Verdana",
									"fontsize" : 10.0,
									"id" : "obj-14",
									"maxclass" : "newobj",
									"numinlets" : 9,
									"numoutlets" : 9,
									"outlettype" : [ "", "", "", "", "", "", "", "", "" ],
									"patching_rect" : [ 166.0, 70.0, 356.0, 21.0 ],
									"text" : "route /qom /aom /hom /wom /com_x /com_y /circularity /perimeter"
								}

							}
, 							{
								"box" : 								{
									"fontname" : "Arial",
									"fontsize" : 11.595186999999999,
									"id" : "obj-23",
									"maxclass" : "newobj",
									"numinlets" : 0,
									"numoutlets" : 1,
									"outlettype" : [ "" ],
									"patching_rect" : [ 166.0, 19.0, 86.0, 22.0 ],
									"text" : "r analysis-data"
								}

							}
 ],
						"lines" : [ 							{
								"patchline" : 								{
									"destination" : [ "obj-11", 0 ],
									"source" : [ "obj-10", 0 ]
								}

							}
, 							{
								"patchline" : 								{
									"destination" : [ "obj-19", 0 ],
									"midpoints" : [ 524.700012000000015, 263.5, 261.700012000000015, 263.5 ],
									"source" : [ "obj-11", 0 ]
								}

							}
, 							{
								"patchline" : 								{
									"destination" : [ "obj-27", 0 ],
									"source" : [ "obj-12", 0 ]
								}

							}
, 							{
								"patchline" : 								{
									"destination" : [ "obj-10", 0 ],
									"source" : [ "obj-13", 0 ]
								}

							}
, 							{
								"patchline" : 								{
									"destination" : [ "obj-10", 1 ],
									"source" : [ "obj-14", 0 ]
								}

							}
, 							{
								"patchline" : 								{
									"destination" : [ "obj-2", 1 ],
									"source" : [ "obj-14", 1 ]
								}

							}
, 							{
								"patchline" : 								{
									"destination" : [ "obj-27", 1 ],
									"source" : [ "obj-14", 5 ]
								}

							}
, 							{
								"patchline" : 								{
									"destination" : [ "obj-29", 1 ],
									"source" : [ "obj-14", 3 ]
								}

							}
, 							{
								"patchline" : 								{
									"destination" : [ "obj-37", 1 ],
									"source" : [ "obj-14", 2 ]
								}

							}
, 							{
								"patchline" : 								{
									"destination" : [ "obj-42", 1 ],
									"source" : [ "obj-14", 4 ]
								}

							}
, 							{
								"patchline" : 								{
									"destination" : [ "obj-19", 0 ],
									"midpoints" : [ 70.700012000000001, 263.5, 261.700012000000015, 263.5 ],
									"source" : [ "obj-16", 0 ]
								}

							}
, 							{
								"patchline" : 								{
									"destination" : [ "obj-20", 0 ],
									"source" : [ "obj-19", 0 ]
								}

							}
, 							{
								"patchline" : 								{
									"destination" : [ "obj-7", 0 ],
									"source" : [ "obj-2", 0 ]
								}

							}
, 							{
								"patchline" : 								{
									"destination" : [ "obj-53", 0 ],
									"source" : [ "obj-20", 0 ]
								}

							}
, 							{
								"patchline" : 								{
									"destination" : [ "obj-14", 0 ],
									"source" : [ "obj-23", 0 ]
								}

							}
, 							{
								"patchline" : 								{
									"destination" : [ "obj-16", 0 ],
									"source" : [ "obj-27", 0 ]
								}

							}
, 							{
								"patchline" : 								{
									"destination" : [ "obj-31", 0 ],
									"source" : [ "obj-29", 0 ]
								}

							}
, 							{
								"patchline" : 								{
									"destination" : [ "obj-19", 0 ],
									"midpoints" : [ 261.700012000000015, 263.5, 261.700012000000015, 263.5 ],
									"source" : [ "obj-31", 0 ]
								}

							}
, 							{
								"patchline" : 								{
									"destination" : [ "obj-29", 0 ],
									"source" : [ "obj-36", 0 ]
								}

							}
, 							{
								"patchline" : 								{
									"destination" : [ "obj-38", 0 ],
									"source" : [ "obj-37", 0 ]
								}

							}
, 							{
								"patchline" : 								{
									"destination" : [ "obj-19", 0 ],
									"midpoints" : [ 350.700012000000015, 263.5, 261.700012000000015, 263.5 ],
									"source" : [ "obj-38", 0 ]
								}

							}
, 							{
								"patchline" : 								{
									"destination" : [ "obj-37", 0 ],
									"source" : [ "obj-39", 0 ]
								}

							}
, 							{
								"patchline" : 								{
									"destination" : [ "obj-44", 0 ],
									"source" : [ "obj-42", 0 ]
								}

							}
, 							{
								"patchline" : 								{
									"destination" : [ "obj-19", 0 ],
									"midpoints" : [ 164.700011999999987, 263.5, 261.700012000000015, 263.5 ],
									"source" : [ "obj-44", 0 ]
								}

							}
, 							{
								"patchline" : 								{
									"destination" : [ "obj-42", 0 ],
									"source" : [ "obj-46", 0 ]
								}

							}
, 							{
								"patchline" : 								{
									"destination" : [ "obj-12", 0 ],
									"midpoints" : [ 41.700012000000001, 120.5, 70.700012000000001, 120.5 ],
									"order" : 5,
									"source" : [ "obj-52", 0 ]
								}

							}
, 							{
								"patchline" : 								{
									"destination" : [ "obj-13", 0 ],
									"midpoints" : [ 41.700012000000001, 120.5, 524.700012000000015, 120.5 ],
									"order" : 0,
									"source" : [ "obj-52", 0 ]
								}

							}
, 							{
								"patchline" : 								{
									"destination" : [ "obj-36", 0 ],
									"midpoints" : [ 41.700012000000001, 120.5, 261.700012000000015, 120.5 ],
									"order" : 3,
									"source" : [ "obj-52", 0 ]
								}

							}
, 							{
								"patchline" : 								{
									"destination" : [ "obj-39", 0 ],
									"midpoints" : [ 41.700012000000001, 120.5, 350.700012000000015, 120.5 ],
									"order" : 2,
									"source" : [ "obj-52", 0 ]
								}

							}
, 							{
								"patchline" : 								{
									"destination" : [ "obj-46", 0 ],
									"midpoints" : [ 41.700012000000001, 120.5, 164.700011999999987, 120.5 ],
									"order" : 4,
									"source" : [ "obj-52", 0 ]
								}

							}
, 							{
								"patchline" : 								{
									"destination" : [ "obj-8", 0 ],
									"midpoints" : [ 41.700012000000001, 120.5, 439.700012000000015, 120.5 ],
									"order" : 1,
									"source" : [ "obj-52", 0 ]
								}

							}
, 							{
								"patchline" : 								{
									"destination" : [ "obj-19", 0 ],
									"midpoints" : [ 439.700012000000015, 263.5, 261.700012000000015, 263.5 ],
									"source" : [ "obj-7", 0 ]
								}

							}
, 							{
								"patchline" : 								{
									"destination" : [ "obj-2", 0 ],
									"source" : [ "obj-8", 0 ]
								}

							}
 ]
					}
,
					"patching_rect" : [ 244.0, 208.0, 77.0, 21.0 ],
					"saved_object_attributes" : 					{
						"description" : "",
						"digest" : "",
						"fontname" : "Verdana",
						"fontsize" : 10.0,
						"globalpatchername" : "",
						"tags" : ""
					}
,
					"text" : "p make-stats"
				}

			}
, 			{
				"box" : 				{
					"fontname" : "Verdana",
					"fontsize" : 10.0,
					"id" : "obj-1",
					"maxclass" : "newobj",
					"numinlets" : 1,
					"numoutlets" : 3,
					"outlettype" : [ "bang", "bang", "bang" ],
					"patching_rect" : [ 230.0, 106.0, 46.0, 21.0 ],
					"text" : "t b b b"
				}

			}
, 			{
				"box" : 				{
					"fontname" : "Verdana",
					"fontsize" : 10.0,
					"id" : "obj-41",
					"maxclass" : "newobj",
					"numinlets" : 1,
					"numoutlets" : 2,
					"outlettype" : [ "bang", "bang" ],
					"patching_rect" : [ 370.0, 165.0, 34.0, 21.0 ],
					"text" : "t b b"
				}

			}
, 			{
				"box" : 				{
					"fontname" : "Verdana",
					"fontsize" : 11.595186999999999,
					"id" : "obj-32",
					"maxclass" : "newobj",
					"numinlets" : 1,
					"numoutlets" : 1,
					"outlettype" : [ "" ],
					"patching_rect" : [ 370.0, 252.0, 69.0, 23.0 ],
					"text" : "append cr"
				}

			}
, 			{
				"box" : 				{
					"fontname" : "Verdana",
					"fontsize" : 10.0,
					"id" : "obj-33",
					"maxclass" : "comment",
					"numinlets" : 1,
					"numoutlets" : 0,
					"patching_rect" : [ 391.0, 213.0, 149.0, 19.0 ],
					"text" : "writing column headers"
				}

			}
, 			{
				"box" : 				{
					"fontname" : "Verdana",
					"fontsize" : 10.0,
					"id" : "obj-34",
					"maxclass" : "message",
					"numinlets" : 2,
					"numoutlets" : 1,
					"outlettype" : [ "" ],
					"patching_rect" : [ 370.0, 230.0, 219.0, 21.0 ],
					"text" : "variable\\,count\\,min\\,max\\,mean\\,stddev"
				}

			}
, 			{
				"box" : 				{
					"fontname" : "Verdana",
					"fontsize" : 10.0,
					"id" : "obj-45",
					"maxclass" : "newobj",
					"numinlets" : 1,
					"numoutlets" : 1,
					"outlettype" : [ "" ],
					"patching_rect" : [ 70.0, 306.0, 57.0, 21.0 ],
					"text" : "tosymbol"
				}

			}
, 			{
				"box" : 				{
					"fontname" : "Verdana",
					"fontsize" : 10.0,
					"id" : "obj-43",
					"maxclass" : "newobj",
					"numinlets" : 1,
					"numoutlets" : 0,
					"patching_rect" : [ 99.0, 378.0, 73.0, 21.0 ],
					"text" : "print writing"
				}

			}
, 			{
				"box" : 				{
					"fontname" : "Verdana",
					"fontsize" : 10.0,
					"id" : "obj-40",
					"maxclass" : "newobj",
					"numinlets" : 1,
					"numoutlets" : 1,
					"outlettype" : [ "" ],
					"patching_rect" : [ 70.0, 283.0, 111.0, 21.0 ],
					"text" : "sprintf %s_stats.csv"
				}

			}
, 			{
				"box" : 				{
					"fontname" : "Verdana",
					"fontsize" : 10.0,
					"id" : "obj-35",
					"maxclass" : "newobj",
					"numinlets" : 2,
					"numoutlets" : 1,
					"outlettype" : [ "" ],
					"patching_rect" : [ 24.0, 378.0, 65.0, 21.0 ],
					"text" : "pak write l"
				}

			}
, 			{
				"box" : 				{
					"fontname" : "Verdana",
					"fontsize" : 10.0,
					"id" : "obj-30",
					"linecount" : 3,
					"maxclass" : "comment",
					"numinlets" : 1,
					"numoutlets" : 0,
					"patching_rect" : [ 627.0, 251.0, 115.0, 43.0 ],
					"text" : "clearing coll before starting new writing session"
				}

			}
, 			{
				"box" : 				{
					"fontname" : "Verdana",
					"fontsize" : 10.0,
					"id" : "obj-47",
					"maxclass" : "newobj",
					"numinlets" : 1,
					"numoutlets" : 1,
					"outlettype" : [ "" ],
					"patching_rect" : [ 70.0, 260.0, 86.0, 21.0 ],
					"text" : "v file-and-path"
				}

			}
, 			{
				"box" : 				{
					"fontname" : "Verdana",
					"fontsize" : 11.595186999999999,
					"id" : "obj-22",
					"maxclass" : "message",
					"numinlets" : 2,
					"numoutlets" : 1,
					"outlettype" : [ "" ],
					"patching_rect" : [ 610.0, 227.0, 40.0, 23.0 ],
					"text" : "clear"
				}

			}
, 			{
				"box" : 				{
					"fontname" : "Verdana",
					"fontsize" : 11.595186999999999,
					"id" : "obj-24",
					"maxclass" : "newobj",
					"numinlets" : 2,
					"numoutlets" : 2,
					"outlettype" : [ "bang", "" ],
					"patching_rect" : [ 230.0, 74.0, 60.0, 23.0 ],
					"text" : "sel done"
				}

			}
, 			{
				"box" : 				{
					"fontname" : "Verdana",
					"fontsize" : 11.595186999999999,
					"id" : "obj-25",
					"maxclass" : "newobj",
					"numinlets" : 2,
					"numoutlets" : 2,
					"outlettype" : [ "", "" ],
					"patching_rect" : [ 230.0, 49.0, 113.0, 23.0 ],
					"text" : "route framedump"
				}

			}
, 			{
				"box" : 				{
					"fontname" : "Verdana",
					"fontsize" : 11.595186999999999,
					"id" : "obj-23",
					"maxclass" : "newobj",
					"numinlets" : 0,
					"numoutlets" : 1,
					"outlettype" : [ "" ],
					"patching_rect" : [ 230.0, 24.0, 88.0, 23.0 ],
					"text" : "r from-movie"
				}

			}
, 			{
				"box" : 				{
					"fontname" : "Verdana",
					"fontsize" : 11.595186999999999,
					"id" : "obj-28",
					"maxclass" : "newobj",
					"numinlets" : 1,
					"numoutlets" : 3,
					"outlettype" : [ "", "bang", "int" ],
					"patching_rect" : [ 244.0, 428.0, 53.0, 23.0 ],
					"text" : "text"
				}

			}
, 			{
				"box" : 				{
					"fontname" : "Verdana",
					"fontsize" : 10.0,
					"id" : "obj-8",
					"linecount" : 8,
					"maxclass" : "comment",
					"numinlets" : 1,
					"numoutlets" : 0,
					"patching_rect" : [ 412.0, 27.0, 167.0, 116.0 ],
					"text" : "QoM - Quantity of motion\nWoM - Width of motion\nHoM - Height of motion\nAoM -  Area of motion\nCoM - Centroid of motion XY\n\n\n\n"
				}

			}
 ],
		"lines" : [ 			{
				"patchline" : 				{
					"destination" : [ "obj-41", 0 ],
					"source" : [ "obj-1", 2 ]
				}

			}
, 			{
				"patchline" : 				{
					"destination" : [ "obj-47", 0 ],
					"source" : [ "obj-1", 0 ]
				}

			}
, 			{
				"patchline" : 				{
					"destination" : [ "obj-54", 0 ],
					"source" : [ "obj-1", 1 ]
				}

			}
, 			{
				"patchline" : 				{
					"destination" : [ "obj-28", 0 ],
					"midpoints" : [ 619.5, 418.0, 253.5, 418.0 ],
					"source" : [ "obj-22", 0 ]
				}

			}
, 			{
				"patchline" : 				{
					"destination" : [ "obj-25", 0 ],
					"source" : [ "obj-23", 0 ]
				}

			}
, 			{
				"patchline" : 				{
					"destination" : [ "obj-1", 0 ],
					"source" : [ "obj-24", 0 ]
				}

			}
, 			{
				"patchline" : 				{
					"destination" : [ "obj-24", 0 ],
					"source" : [ "obj-25", 0 ]
				}

			}
, 			{
				"patchline" : 				{
					"destination" : [ "obj-28", 0 ],
					"source" : [ "obj-32", 0 ]
				}

			}
, 			{
				"patchline" : 				{
					"destination" : [ "obj-32", 0 ],
					"source" : [ "obj-34", 0 ]
				}

			}
, 			{
				"patchline" : 				{
					"destination" : [ "obj-28", 0 ],
					"midpoints" : [ 33.5, 402.5, 253.5, 402.5 ],
					"source" : [ "obj-35", 0 ]
				}

			}
, 			{
				"patchline" : 				{
					"destination" : [ "obj-45", 0 ],
					"source" : [ "obj-40", 0 ]
				}

			}
, 			{
				"patchline" : 				{
					"destination" : [ "obj-22", 0 ],
					"midpoints" : [ 394.5, 205.0, 619.5, 205.0 ],
					"source" : [ "obj-41", 1 ]
				}

			}
, 			{
				"patchline" : 				{
					"destination" : [ "obj-34", 0 ],
					"source" : [ "obj-41", 0 ]
				}

			}
, 			{
				"patchline" : 				{
					"destination" : [ "obj-35", 1 ],
					"order" : 1,
					"source" : [ "obj-45", 0 ]
				}

			}
, 			{
				"patchline" : 				{
					"destination" : [ "obj-43", 0 ],
					"order" : 0,
					"source" : [ "obj-45", 0 ]
				}

			}
, 			{
				"patchline" : 				{
					"destination" : [ "obj-40", 0 ],
					"source" : [ "obj-47", 0 ]
				}

			}
, 			{
				"patchline" : 				{
					"destination" : [ "obj-28", 0 ],
					"source" : [ "obj-54", 0 ]
				}

			}
 ],
		"dependency_cache" : [ 			{
				"name" : "mgt.liststats.maxpat",
				"bootpath" : "~/Documents/GitHub/VideoAnalysis/source",
				"patcherrelativepath" : ".",
				"type" : "JSON",
				"implicit" : 1
			}
, 			{
				"name" : "mgt.stats.maxpat",
				"bootpath" : "~/Documents/GitHub/VideoAnalysis/source",
				"patcherrelativepath" : ".",
				"type" : "JSON",
				"implicit" : 1
			}
, 			{
				"name" : "calcStats.gendsp",
				"bootpath" : "~/Documents/GitHub/VideoAnalysis/source",
				"patcherrelativepath" : ".",
				"type" : "gDSP",
				"implicit" : 1
			}
 ],
		"autosave" : 0
	}

}
